<svg width="35" height="35" viewBox="0 0 35 35" fill="none" xmlns="http://www.w3.org/2000/svg">
<circle cx="17.5" cy="17.5" r="17.5" fill="#1B3541"/>
<path d="M14.6094 19.2266H16.9453C16.8984 19.9922 16.6875 20.6719 16.3125 21.2656C15.9427 21.8594 15.4245 22.3229 14.7578 22.6562C14.0964 22.9896 13.2995 23.1562 12.3672 23.1562C11.638 23.1562 10.9844 23.0312 10.4062 22.7812C9.82812 22.526 9.33333 22.1615 8.92188 21.6875C8.51562 21.2135 8.20573 20.6406 7.99219 19.9688C7.77865 19.2969 7.67188 18.5443 7.67188 17.7109V16.9219C7.67188 16.0885 7.78125 15.3359 8 14.6641C8.22396 13.987 8.54167 13.4115 8.95312 12.9375C9.36979 12.4635 9.86719 12.099 10.4453 11.8438C11.0234 11.5885 11.6693 11.4609 12.3828 11.4609C13.3307 11.4609 14.1302 11.6328 14.7812 11.9766C15.4375 12.3203 15.9453 12.7943 16.3047 13.3984C16.6693 14.0026 16.888 14.6901 16.9609 15.4609H14.6172C14.5911 15.0026 14.5 14.6146 14.3438 14.2969C14.1875 13.974 13.9505 13.7318 13.6328 13.5703C13.3203 13.4036 12.9036 13.3203 12.3828 13.3203C11.9922 13.3203 11.651 13.3932 11.3594 13.5391C11.0677 13.6849 10.8229 13.9062 10.625 14.2031C10.4271 14.5 10.2786 14.875 10.1797 15.3281C10.0859 15.776 10.0391 16.3021 10.0391 16.9062V17.7109C10.0391 18.2995 10.0833 18.8177 10.1719 19.2656C10.2604 19.7083 10.3958 20.0833 10.5781 20.3906C10.7656 20.6927 11.0052 20.9219 11.2969 21.0781C11.5938 21.2292 11.9505 21.3047 12.3672 21.3047C12.8568 21.3047 13.2604 21.2266 13.5781 21.0703C13.8958 20.9141 14.138 20.6823 14.3047 20.375C14.4766 20.0677 14.5781 19.6849 14.6094 19.2266ZM18.4844 11.625H22.7266C23.5964 11.625 24.3438 11.7552 24.9688 12.0156C25.599 12.276 26.0833 12.6615 26.4219 13.1719C26.7604 13.6823 26.9297 14.3099 26.9297 15.0547C26.9297 15.6641 26.8255 16.1875 26.6172 16.625C26.4141 17.0573 26.125 17.4193 25.75 17.7109C25.3802 17.9974 24.9453 18.2266 24.4453 18.3984L23.7031 18.7891H20.0156L20 16.9609H22.7422C23.1536 16.9609 23.4948 16.888 23.7656 16.7422C24.0365 16.5964 24.2396 16.3932 24.375 16.1328C24.5156 15.8724 24.5859 15.5703 24.5859 15.2266C24.5859 14.862 24.5182 14.5469 24.3828 14.2812C24.2474 14.0156 24.0417 13.8125 23.7656 13.6719C23.4896 13.5312 23.1432 13.4609 22.7266 13.4609H20.8281V23H18.4844V11.625ZM24.8438 23L22.25 17.9297L24.7266 17.9141L27.3516 22.8906V23H24.8438Z" fill="white"/>
</svg>
