<svg width="36" height="36" viewBox="0 0 36 36" fill="none" xmlns="http://www.w3.org/2000/svg">
<path fill-rule="evenodd" clip-rule="evenodd" d="M29.925 3.03938C30.2362 3.09022 30.5167 3.25683 30.7103 3.5058C30.9039 3.75477 30.9962 4.06771 30.9687 4.38188L30.9569 4.47438C30.4037 7.86376 29.6675 10.6531 28.75 12.8419C27.9169 14.8281 26.505 17.175 24.5131 19.8838L24.0244 20.5406L23.7712 20.8744C22.9961 21.8913 22.5199 23.1042 22.3962 24.3769C22.2225 26.1675 21.84 27.4494 21.25 28.2213C19.1162 30.5725 17.1344 32.1075 15.3037 32.8269C15.2049 32.8657 15.0978 32.8787 14.9925 32.8646C14.8872 32.8505 14.7873 32.8099 14.7021 32.7464C14.6169 32.683 14.5493 32.5989 14.5056 32.5021C14.4619 32.4053 14.4436 32.299 14.4525 32.1931L14.9306 26.4588C14.9377 26.374 14.9274 26.2887 14.9004 26.208C14.8733 26.1273 14.8301 26.053 14.7733 25.9897C14.7166 25.9263 14.6475 25.8752 14.5703 25.8395C14.4931 25.8037 14.4094 25.7841 14.3244 25.7819L14.2519 25.7844C13.2569 25.8738 12.2562 25.4781 11.25 24.5969C10.3637 23.8213 9.89435 23.0388 9.8431 22.25L9.8381 22.1106C9.83783 22.0147 9.81548 21.9201 9.77277 21.8342C9.73006 21.7482 9.66814 21.6733 9.59181 21.6152C9.51548 21.557 9.42679 21.5173 9.33261 21.4989C9.23844 21.4806 9.1413 21.4841 9.04873 21.5094L4.38185 22.7819C4.27386 22.8113 4.15997 22.8111 4.05206 22.7814C3.94415 22.7518 3.84619 22.6937 3.76841 22.6132C3.69062 22.5327 3.63587 22.4329 3.60987 22.324C3.58387 22.2151 3.58758 22.1013 3.6206 21.9944L3.6456 21.9256L3.89498 21.3694L4.13685 20.8388L4.37185 20.3344L4.59998 19.8563L4.82185 19.4038C4.8581 19.3306 4.89373 19.2581 4.92998 19.1875L5.1406 18.7744L5.34498 18.3869L5.44498 18.2031L5.63873 17.8556L5.82623 17.5338C5.91748 17.3794 6.00685 17.235 6.09373 17.1L6.26373 16.8438C6.4856 16.5188 6.68935 16.2638 6.87498 16.0781C7.56623 15.3869 8.91685 14.7488 10.9269 14.1644C11.9729 13.8603 12.9214 13.288 13.6781 12.5044C13.8656 12.31 14.0519 12.1194 14.2356 11.9331L14.7819 11.3856C15.2129 10.9581 15.6509 10.5377 16.0956 10.1244L16.6012 9.66188L17.095 9.22438C18.3956 8.08938 19.5725 7.21313 20.625 6.59626C21.1906 6.26501 21.8481 5.92751 22.5975 5.58376L23.1106 5.35376C23.1981 5.31501 23.2875 5.27688 23.3775 5.23813L23.9319 5.00563C24.1212 4.92751 24.315 4.84938 24.5131 4.77126L25.1225 4.53501L25.7581 4.29751L26.4219 4.05751L27.1125 3.81626L27.83 3.57251L28.1987 3.45063L28.9581 3.20438L29.3475 3.08063C29.5341 3.02188 29.7319 3.00775 29.925 3.03938ZM9.37498 24.375C9.60435 24.375 9.82748 24.4 10.0425 24.4463C9.5506 24.6844 9.23935 25.5163 9.10873 26.9425L9.0931 27.1319C9.08609 27.2221 9.09877 27.3128 9.13027 27.3977C9.16176 27.4826 9.21132 27.5596 9.27552 27.6235C9.33971 27.6873 9.41701 27.7364 9.50206 27.7674C9.58711 27.7985 9.67788 27.8106 9.7681 27.8031C11.2969 27.6744 12.1837 27.3519 12.4294 26.8363C12.4756 27.0506 12.5 27.2725 12.5 27.5C12.5 28.65 11.6669 29.4838 9.99998 30L7.3081 30.2713C7.21635 30.2805 7.12369 30.2693 7.03677 30.2385C6.94984 30.2077 6.87081 30.1581 6.80533 30.0932C6.73986 30.0282 6.68956 29.9496 6.65806 29.8629C6.62655 29.7763 6.61461 29.6837 6.6231 29.5919L6.87498 26.875C7.39123 25.2081 8.22435 24.375 9.37498 24.375ZM22.1875 10C21.4416 10 20.7262 10.2963 20.1987 10.8238C19.6713 11.3512 19.375 12.0666 19.375 12.8125C19.375 13.5584 19.6713 14.2738 20.1987 14.8012C20.7262 15.3287 21.4416 15.625 22.1875 15.625C22.9334 15.625 23.6488 15.3287 24.1762 14.8012C24.7037 14.2738 25 13.5584 25 12.8125C25 12.0666 24.7037 11.3512 24.1762 10.8238C23.6488 10.2963 22.9334 10 22.1875 10Z" fill="#04F75F"/>
</svg>
