<svg width="36" height="36" viewBox="0 0 28 30" fill="none" xmlns="http://www.w3.org/2000/svg">
<path fill-rule="evenodd" clip-rule="evenodd" d="M26.925 0.0393821C27.2362 0.0902198 27.5167 0.256825 27.7103 0.505799C27.9039 0.754773 27.9962 1.06771 27.9687 1.38188L27.9569 1.47438C27.4037 4.86376 26.6675 7.65313 25.75 9.84188C24.9169 11.8281 23.505 14.175 21.5131 16.8838L21.0244 17.5406L20.7712 17.8744C19.9961 18.8913 19.5199 20.1042 19.3962 21.3769C19.2225 23.1675 18.84 24.4494 18.25 25.2213C16.1162 27.5725 14.1344 29.1075 12.3037 29.8269C12.2049 29.8657 12.0978 29.8787 11.9925 29.8646C11.8872 29.8505 11.7873 29.8099 11.7021 29.7464C11.6169 29.683 11.5493 29.5989 11.5056 29.5021C11.4619 29.4053 11.4436 29.299 11.4525 29.1931L11.9306 23.4588C11.9377 23.374 11.9274 23.2887 11.9004 23.208C11.8733 23.1273 11.8301 23.053 11.7733 22.9897C11.7166 22.9263 11.6475 22.8752 11.5703 22.8395C11.4931 22.8037 11.4094 22.7841 11.3244 22.7819L11.2519 22.7844C10.2569 22.8738 9.25623 22.4781 8.24998 21.5969C7.36373 20.8213 6.89435 20.0388 6.8431 19.25L6.8381 19.1106C6.83783 19.0147 6.81548 18.9201 6.77277 18.8342C6.73006 18.7482 6.66814 18.6733 6.59181 18.6152C6.51548 18.557 6.42679 18.5173 6.33261 18.4989C6.23844 18.4806 6.1413 18.4841 6.04873 18.5094L1.38185 19.7819C1.27386 19.8113 1.15997 19.8111 1.05206 19.7814C0.94415 19.7518 0.846188 19.6937 0.768406 19.6132C0.690623 19.5327 0.635873 19.4329 0.609873 19.324C0.583874 19.2151 0.587579 19.1013 0.620602 18.9944L0.645602 18.9256L0.894977 18.3694L1.13685 17.8388L1.37185 17.3344L1.59998 16.8563L1.82185 16.4038C1.8581 16.3306 1.89373 16.2581 1.92998 16.1875L2.1406 15.7744L2.34498 15.3869L2.44498 15.2031L2.63873 14.8556L2.82623 14.5338C2.91748 14.3794 3.00685 14.235 3.09373 14.1L3.26373 13.8438C3.4856 13.5188 3.68935 13.2638 3.87498 13.0781C4.56623 12.3869 5.91685 11.7488 7.92685 11.1644C8.97293 10.8603 9.92136 10.288 10.6781 9.50438C10.8656 9.31001 11.0519 9.11938 11.2356 8.93313L11.7819 8.38563C12.2129 7.95813 12.6509 7.53766 13.0956 7.12438L13.6012 6.66188L14.095 6.22438C15.3956 5.08938 16.5725 4.21313 17.625 3.59626C18.1906 3.26501 18.8481 2.92751 19.5975 2.58376L20.1106 2.35376C20.1981 2.31501 20.2875 2.27688 20.3775 2.23813L20.9319 2.00563C21.1212 1.92751 21.315 1.84938 21.5131 1.77126L22.1225 1.53501L22.7581 1.29751L23.4219 1.05751L24.1125 0.816257L24.83 0.572507L25.1987 0.450632L25.9581 0.204382L26.3475 0.080632C26.5341 0.0218764 26.7319 0.00774745 26.925 0.0393821ZM6.37498 21.375C6.60435 21.375 6.82748 21.4 7.04248 21.4463C6.5506 21.6844 6.23935 22.5163 6.10873 23.9425L6.0931 24.1319C6.08609 24.2221 6.09877 24.3128 6.13027 24.3977C6.16176 24.4826 6.21132 24.5596 6.27552 24.6235C6.33971 24.6873 6.41701 24.7364 6.50206 24.7674C6.58711 24.7985 6.67788 24.8106 6.7681 24.8031C8.29685 24.6744 9.18373 24.3519 9.42935 23.8363C9.4756 24.0506 9.49998 24.2725 9.49998 24.5C9.49998 25.65 8.66685 26.4838 6.99998 27L4.3081 27.2713C4.21635 27.2805 4.12369 27.2693 4.03677 27.2385C3.94984 27.2077 3.87081 27.1581 3.80533 27.0932C3.73986 27.0282 3.68956 26.9496 3.65806 26.8629C3.62655 26.7763 3.61461 26.6837 3.6231 26.5919L3.87498 23.875C4.39123 22.2081 5.22435 21.375 6.37498 21.375ZM19.1875 7.00001C18.4416 7.00001 17.7262 7.29632 17.1987 7.82377C16.6713 8.35121 16.375 9.06658 16.375 9.81251C16.375 10.5584 16.6713 11.2738 17.1987 11.8012C17.7262 12.3287 18.4416 12.625 19.1875 12.625C19.9334 12.625 20.6488 12.3287 21.1762 11.8012C21.7037 11.2738 22 10.5584 22 9.81251C22 9.06658 21.7037 8.35121 21.1762 7.82377C20.6488 7.29632 19.9334 7.00001 19.1875 7.00001Z" fill="#466A87"/>
</svg>
