<svg width="30" height="30" viewBox="0 0 30 30" fill="none" xmlns="http://www.w3.org/2000/svg">
<g clip-path="url(#clip0_13_39)">
<path d="M20.7692 0.216928C15.7904 0.216928 11.7542 2.4427 11.7542 5.19231C11.7542 7.94193 15.7915 10.1689 20.7692 10.1689C25.7481 10.1689 29.7842 7.94193 29.7842 5.19231C29.7842 2.4427 25.7469 0.216928 20.7692 0.216928ZM29.7842 6.67039C29.7819 9.42001 25.7481 11.6469 20.7692 11.6469C15.8042 11.6469 11.7773 9.44424 11.7542 6.70731V8.65385C11.7542 9.82847 12.5065 10.9039 13.7388 11.7554C14.985 12.0946 16.095 12.5654 17.0192 13.1608C18.165 13.4515 19.425 13.6292 20.7692 13.6292C25.7481 13.6292 29.7842 11.4035 29.7842 8.65385V6.67039ZM29.7842 10.1319C29.7842 12.8815 25.7481 15.1085 20.7692 15.1085C20.1635 15.1085 19.575 15.0635 19.0027 15C19.4543 15.6082 19.7624 16.3108 19.9038 17.055C20.1911 17.0712 20.475 17.0908 20.7692 17.0908C25.7481 17.0908 29.7842 14.865 29.7842 12.1154V10.1319ZM9.23076 12.9081C4.25191 12.9081 0.215759 15.135 0.215759 17.8846C0.215759 20.6342 4.25307 22.8612 9.23076 22.8612C14.2096 22.8612 18.2458 20.6342 18.2458 17.8846C18.2458 15.135 14.2085 12.9081 9.23076 12.9081ZM29.7842 13.5935C29.7819 16.3431 25.7481 18.57 20.7692 18.57C20.4796 18.57 20.1865 18.5492 19.9038 18.5331C19.8911 18.6196 19.8842 18.735 19.8681 18.8215C19.9258 18.9958 19.9754 19.1677 19.9754 19.3638V20.5177C20.2373 20.5304 20.5004 20.5523 20.7692 20.5523C25.7481 20.5523 29.7842 18.3265 29.7842 15.5769V13.5935ZM29.7842 17.055C29.7819 19.8046 25.7481 22.0315 20.7692 22.0315C20.4796 22.0315 20.1865 22.0108 19.9038 21.9946C19.8911 22.0812 19.8842 22.1965 19.8681 22.2831C19.9258 22.4562 19.9754 22.6292 19.9754 22.8254V23.9792C20.2373 23.9919 20.5004 24.0139 20.7692 24.0139C25.7481 24.0139 29.7842 21.7881 29.7842 19.0385V17.055ZM18.2458 19.3627C18.2435 22.1123 14.2096 24.3392 9.23076 24.3392C4.26576 24.3392 0.238836 22.1365 0.215759 19.3985V21.3462C0.215759 24.0958 4.25076 26.3227 9.23076 26.3227C14.2108 26.3227 18.2458 24.0958 18.2458 21.3462V19.3627ZM18.2458 22.8242C18.2435 25.5739 14.2096 27.8008 9.23076 27.8008C4.26576 27.8008 0.238836 25.5981 0.215759 22.86V24.8077C0.215759 27.5573 4.25076 29.7842 9.23076 29.7842C14.2108 29.7842 18.2458 27.5573 18.2458 24.8077V22.8242Z" fill="#04F75F"/>
</g>
<defs>
<clipPath id="clip0_13_39">
<rect width="30" height="30" fill="white"/>
</clipPath>
</defs>
</svg>
