<svg width="36" height="36" viewBox="0 0 36 36" fill="none" xmlns="http://www.w3.org/2000/svg">
<path d="M33 12.243V12.3525C33 13.6425 33 14.289 32.6895 14.817C32.379 15.345 31.8135 15.6585 30.6855 16.287L29.496 16.947C30.315 14.175 30.5895 11.196 30.69 8.649L30.705 8.3175L30.708 8.2395C31.6845 8.5785 32.2335 8.832 32.5755 9.306C33 9.8955 33 10.6785 33 12.243ZM3 12.243V12.3525C3 13.6425 3 14.289 3.3105 14.817C3.621 15.345 4.1865 15.6585 5.3145 16.287L6.5055 16.947C5.685 14.175 5.4105 11.196 5.31 8.649L5.295 8.3175L5.2935 8.2395C4.3155 8.5785 3.7665 8.832 3.4245 9.306C3 9.8955 3 10.68 3 12.243Z" fill="#466A87"/>
<path fill-rule="evenodd" clip-rule="evenodd" d="M24.5655 3.5205C22.3953 3.16481 20.1992 2.99071 18 3C15.3255 3 13.1205 3.2355 11.4345 3.5205C9.72599 3.8085 8.87249 3.9525 8.15849 4.8315C7.44599 5.7105 7.48349 6.66 7.55849 8.559C7.81799 15.081 9.22499 23.229 16.875 23.949V29.25H14.73C14.3834 29.2502 14.0475 29.3705 13.7795 29.5903C13.5115 29.8102 13.3279 30.1161 13.26 30.456L12.975 31.875H8.99999C8.70162 31.875 8.41548 31.9935 8.2045 32.2045C7.99352 32.4155 7.87499 32.7016 7.87499 33C7.87499 33.2984 7.99352 33.5845 8.2045 33.7955C8.41548 34.0065 8.70162 34.125 8.99999 34.125H27C27.2984 34.125 27.5845 34.0065 27.7955 33.7955C28.0065 33.5845 28.125 33.2984 28.125 33C28.125 32.7016 28.0065 32.4155 27.7955 32.2045C27.5845 31.9935 27.2984 31.875 27 31.875H23.025L22.74 30.456C22.6721 30.1161 22.4885 29.8102 22.2205 29.5903C21.9525 29.3705 21.6166 29.2502 21.27 29.25H19.125V23.949C26.775 23.229 28.1835 15.0825 28.4415 8.559C28.5165 6.66 28.5555 5.709 27.8415 4.8315C27.1275 3.9525 26.274 3.8085 24.5655 3.5205Z" fill="#466A87"/>
</svg>
