<svg width="16" height="16" viewBox="0 0 16 16" fill="none" xmlns="http://www.w3.org/2000/svg">
<g clip-path="url(#clip0_16_180)">
<path d="M8 16C12.4183 16 16 12.4183 16 8C16 3.58172 12.4183 0 8 0C3.58172 0 0 3.58172 0 8C0 12.4183 3.58172 16 8 16Z" fill="#FFD983"/>
<path d="M4.66667 5.33334C5.52578 5.33334 6.22223 4.63689 6.22223 3.77778C6.22223 2.91867 5.52578 2.22223 4.66667 2.22223C3.80756 2.22223 3.11111 2.91867 3.11111 3.77778C3.11111 4.63689 3.80756 5.33334 4.66667 5.33334Z" fill="#FFCC4D"/>
<path d="M8.88888 8.8889C9.62526 8.8889 10.2222 8.29194 10.2222 7.55556C10.2222 6.81918 9.62526 6.22223 8.88888 6.22223C8.1525 6.22223 7.55554 6.81918 7.55554 7.55556C7.55554 8.29194 8.1525 8.8889 8.88888 8.8889Z" fill="#FFCC4D"/>
<path d="M10.8889 14.2222C11.748 14.2222 12.4445 13.5258 12.4445 12.6667C12.4445 11.8076 11.748 11.1111 10.8889 11.1111C10.0298 11.1111 9.33334 11.8076 9.33334 12.6667C9.33334 13.5258 10.0298 14.2222 10.8889 14.2222Z" fill="#FFCC4D"/>
<path d="M9.77777 3.11112C10.2687 3.11112 10.6667 2.71315 10.6667 2.22223C10.6667 1.73131 10.2687 1.33334 9.77777 1.33334C9.28685 1.33334 8.88889 1.73131 8.88889 2.22223C8.88889 2.71315 9.28685 3.11112 9.77777 3.11112Z" fill="#FFCC4D"/>
<path d="M1.33333 8.44446C1.57879 8.44446 1.77777 8.24548 1.77777 8.00002C1.77777 7.75456 1.57879 7.55557 1.33333 7.55557C1.08787 7.55557 0.888885 7.75456 0.888885 8.00002C0.888885 8.24548 1.08787 8.44446 1.33333 8.44446Z" fill="#FFCC4D"/>
<path d="M13.3333 4.44446C13.5788 4.44446 13.7778 4.24548 13.7778 4.00002C13.7778 3.75456 13.5788 3.55557 13.3333 3.55557C13.0879 3.55557 12.8889 3.75456 12.8889 4.00002C12.8889 4.24548 13.0879 4.44446 13.3333 4.44446Z" fill="#FFCC4D"/>
<path d="M6.66667 14.2222C6.91213 14.2222 7.11112 14.0232 7.11112 13.7778C7.11112 13.5323 6.91213 13.3333 6.66667 13.3333C6.42121 13.3333 6.22223 13.5323 6.22223 13.7778C6.22223 14.0232 6.42121 14.2222 6.66667 14.2222Z" fill="#FFCC4D"/>
<path d="M14.2222 9.33335C14.7132 9.33335 15.1111 8.93538 15.1111 8.44446C15.1111 7.95354 14.7132 7.55557 14.2222 7.55557C13.7313 7.55557 13.3333 7.95354 13.3333 8.44446C13.3333 8.93538 13.7313 9.33335 14.2222 9.33335Z" fill="#FFCC4D"/>
<path d="M4.44443 11.1111C4.93535 11.1111 5.33332 10.7132 5.33332 10.2222C5.33332 9.73131 4.93535 9.33334 4.44443 9.33334C3.95351 9.33334 3.55554 9.73131 3.55554 10.2222C3.55554 10.7132 3.95351 11.1111 4.44443 11.1111Z" fill="#FFCC4D"/>
</g>
<defs>
<clipPath id="clip0_16_180">
<rect width="16" height="16" fill="white"/>
</clipPath>
</defs>
</svg>
