<svg width="41" height="36" viewBox="0 0 41 36" fill="none" xmlns="http://www.w3.org/2000/svg">
<path d="M21 8.66668H4.33335C3.22828 8.66668 2.16848 9.10567 1.38708 9.88707C0.605674 10.6685 0.166687 11.7283 0.166687 12.8333V21.1667C0.166687 22.2717 0.605674 23.3316 1.38708 24.113C2.16848 24.8944 3.22828 25.3333 4.33335 25.3333H6.41669V33.6667C6.41669 34.2192 6.63618 34.7491 7.02688 35.1398C7.41758 35.5305 7.94749 35.75 8.50002 35.75H12.6667C13.2192 35.75 13.7491 35.5305 14.1398 35.1398C14.5305 34.7491 14.75 34.2192 14.75 33.6667V25.3333H21L31.4167 33.6667V0.333344L21 8.66668ZM40.7917 17C40.7917 20.5625 38.7917 23.7917 35.5834 25.3333V8.66668C38.7709 10.2292 40.7917 13.4583 40.7917 17Z" fill="#04F75F"/>
</svg>
